<?xml version="1.0" standalone="no"?>
<!DOCTYPE svg PUBLIC "-//W3C//DTD SVG 20010904//EN"
 "http://www.w3.org/TR/2001/REC-SVG-20010904/DTD/svg10.dtd">
<svg version="1.0" xmlns="http://www.w3.org/2000/svg"
 width="512.000000pt" height="512.000000pt" viewBox="0 0 512.000000 512.000000"
 preserveAspectRatio="xMidYMid meet">
<metadata>
Created by potrace 1.11, written by Peter Selinger 2001-2013
</metadata>
<g transform="translate(0.000000,512.000000) scale(0.100000,-0.100000)"
fill="#000000" stroke="none">
<path d="M4960 4376 c-384 -149 -652 -285 -930 -469 -318 -211 -560 -427 -842
-755 -60 -69 -208 -274 -280 -388 -349 -550 -587 -1211 -732 -2029 -27 -149
-29 -163 -48 -295 -6 -47 -13 -87 -15 -89 -3 -5 -101 84 -319 288 -44 42 -109
103 -145 136 -57 53 -255 237 -358 334 -34 31 -235 217 -271 251 -9 8 -48 44
-86 80 -190 179 -440 411 -494 460 -9 8 -50 47 -91 85 -243 228 -332 310 -340
313 -5 2 -9 -223 -9 -539 l0 -544 43 -38 c23 -22 92 -85 152 -142 61 -56 124
-115 141 -131 85 -79 262 -244 303 -282 25 -24 71 -67 101 -94 30 -28 111
-103 180 -168 69 -64 150 -140 180 -168 30 -28 89 -82 130 -121 l75 -71 786 0
785 0 13 103 c7 56 14 109 16 118 1 8 6 42 9 75 4 32 9 66 11 74 2 8 6 33 10
55 9 65 15 97 25 150 6 28 12 64 15 80 2 17 9 55 15 85 6 30 13 65 16 78 12
59 66 287 69 292 2 4 7 20 9 36 3 16 15 61 26 99 12 39 23 77 25 85 7 27 63
193 98 290 145 398 355 766 604 1060 63 74 268 280 328 330 144 119 272 211
440 315 73 46 405 215 421 215 3 0 25 9 50 20 l44 20 0 425 c0 334 -3 425 -12
424 -7 0 -74 -24 -148 -53z"/>
</g>
</svg>
